<?xml version="1.0" standalone="no"?>
<!DOCTYPE svg PUBLIC "-//W3C//DTD SVG 20010904//EN"
 "http://www.w3.org/TR/2001/REC-SVG-20010904/DTD/svg10.dtd">
<svg version="1.0" xmlns="http://www.w3.org/2000/svg"
 width="260.000000pt" height="260.000000pt" viewBox="0 0 260.000000 260.000000"
 preserveAspectRatio="xMidYMid meet">
<metadata>
Created by potrace 1.14, written by Peter Selinger 2001-2017
</metadata>
<g transform="translate(0.000000,260.000000) scale(0.100000,-0.100000)"
fill="#000000" stroke="none">
<path d="M1608 2462 c-10 -2 -18 -8 -18 -13 0 -6 -4 -8 -9 -4 -5 3 -13 0 -16
-6 -4 -5 -13 -8 -21 -5 -8 3 -14 1 -14 -3 0 -5 -9 -7 -21 -4 -24 7 -90 -27
-82 -41 4 -5 -1 -7 -10 -3 -12 4 -24 -3 -39 -23 -11 -16 -26 -26 -32 -23 -6 4
-6 1 1 -8 10 -12 7 -15 -19 -17 -17 -2 -35 3 -39 9 -15 25 -100 16 -120 -14
-3 -4 -21 -11 -40 -13 -60 -9 -127 -56 -189 -132 -27 -32 -29 -38 -36 -90 -2
-20 0 -31 6 -27 6 3 7 -1 4 -9 -3 -9 -1 -16 6 -16 6 0 8 -4 5 -10 -3 -5 -1
-10 4 -10 6 0 10 -3 9 -7 -3 -15 35 -82 44 -77 4 3 8 -1 8 -8 0 -8 9 -20 20
-28 11 -8 20 -21 20 -29 0 -8 3 -11 6 -8 4 3 19 -7 35 -24 17 -18 33 -28 40
-23 7 4 9 3 6 -2 -3 -6 8 -19 24 -29 16 -11 29 -24 29 -28 0 -5 -4 -6 -8 -3
-4 2 -8 -4 -8 -15 0 -19 1 -18 19 3 14 17 17 19 13 5 -3 -10 -2 -15 3 -12 5 3
12 1 16 -5 4 -6 10 -8 15 -5 4 3 11 -2 14 -11 3 -8 11 -12 17 -8 7 4 9 3 6 -3
-3 -5 8 -17 24 -27 26 -15 28 -20 17 -34 -11 -13 -11 -14 2 -7 19 12 40 15 39
7 -1 -4 -1 -14 0 -22 1 -12 3 -13 10 -1 7 11 10 9 16 -8 3 -12 11 -19 16 -16
5 3 6 -2 2 -11 -5 -13 -3 -15 7 -9 10 6 12 4 7 -8 -3 -9 -3 -16 1 -16 19 3 25
-2 12 -11 -10 -6 -11 -10 -2 -10 6 0 12 -9 12 -20 0 -11 6 -20 13 -20 7 0 8
-3 2 -8 -5 -4 -11 -23 -12 -42 -3 -57 -16 -93 -47 -130 -18 -21 -18 -22 -2
-10 19 15 19 14 2 -12 -10 -16 -23 -28 -28 -28 -5 0 -7 -4 -3 -9 3 -5 1 -12
-5 -16 -5 -3 -15 -15 -21 -27 -8 -16 -8 -19 1 -13 9 6 9 3 1 -13 -6 -12 -16
-24 -21 -27 -6 -4 -8 -10 -5 -15 3 -5 1 -11 -5 -15 -6 -4 -8 -11 -5 -16 4 -5
2 -9 -3 -9 -5 0 -9 -7 -10 -15 -1 -8 -3 -22 -4 -30 -1 -8 -5 -15 -10 -15 -5 0
-6 -5 -3 -10 4 -6 2 -17 -4 -24 -11 -13 -22 -66 -24 -113 -1 -19 -11 -23 -12
-5 -1 4 -6 16 -12 28 -9 15 -9 24 -1 32 8 8 5 9 -11 5 -13 -3 -21 -1 -21 6 0
7 5 9 13 5 13 -8 -21 36 -38 48 -5 4 -6 8 -1 8 5 0 3 6 -3 14 -6 7 -12 25 -13
40 -1 14 -6 26 -11 26 -5 0 -7 6 -4 14 3 7 -1 23 -8 34 -8 10 -11 23 -7 27 4
3 -2 13 -12 21 -12 8 -15 14 -7 14 11 0 11 3 1 15 -10 12 -10 19 -2 27 8 8 7
15 -4 25 -10 11 -12 19 -4 27 5 7 6 17 2 22 -4 4 1 2 11 -5 14 -11 15 -16 5
-29 -9 -11 -9 -14 -1 -9 8 5 11 1 8 -13 -2 -13 0 -18 7 -14 6 4 6 -1 -1 -15
-9 -17 -9 -20 3 -15 8 3 17 1 21 -5 3 -7 -3 -11 -15 -11 -12 0 -19 -4 -15 -10
3 -6 15 -5 30 2 26 11 35 30 13 25 -14 -2 -18 23 -6 39 5 6 0 18 -12 29 -23
21 -26 37 -6 29 8 -3 17 -1 21 5 3 7 0 8 -9 5 -9 -3 -16 -1 -16 5 0 6 8 11 18
12 14 0 14 2 -3 8 -23 10 -35 5 -31 -12 1 -7 1 -9 -1 -4 -3 4 -8 5 -13 2 -5
-3 -7 3 -5 12 1 10 8 17 14 16 6 -2 11 2 11 7 0 11 22 9 31 -3 3 -5 9 -1 12 8
4 9 3 14 -1 11 -4 -3 -13 4 -20 14 -7 12 -8 21 -2 25 6 4 8 11 5 16 -3 5 1 6
9 3 10 -4 16 -1 16 7 0 7 -3 9 -6 6 -4 -3 -14 -2 -24 3 -14 8 -17 5 -14 -15 1
-14 -2 -25 -7 -25 -5 0 -9 -4 -9 -10 0 -5 5 -9 11 -7 6 1 14 -5 16 -13 4 -12
3 -12 -5 -1 -7 9 -12 10 -16 2 -16 -25 -25 2 -11 29 19 37 19 49 0 24 -11 -13
-14 -14 -13 -4 2 8 7 18 12 22 6 4 4 14 -4 25 -12 15 -12 16 0 6 20 -18 35
-16 20 2 -7 8 -9 15 -4 15 5 0 2 5 -6 10 -8 5 -10 10 -4 10 6 0 11 7 11 15 0
8 -5 15 -11 15 -6 0 -5 4 2 9 8 4 14 12 14 16 0 4 -6 12 -14 16 -10 7 -10 9 2
10 8 1 18 1 22 0 4 0 12 9 19 20 6 12 7 19 1 15 -15 -9 -25 26 -10 37 9 6 8 7
-5 3 -10 -3 -21 -6 -23 -6 -3 0 2 -10 10 -22 21 -29 20 -34 -4 -34 -10 0 -17
2 -15 4 2 3 0 13 -5 23 -7 12 -7 20 0 24 8 5 7 12 -2 22 -11 14 -10 15 12 8
28 -8 22 2 -11 19 -12 6 -23 19 -25 29 -1 9 1 15 5 12 4 -2 8 1 8 8 0 7 -12
13 -26 14 -47 3 -82 11 -96 23 -8 6 -18 9 -24 6 -5 -3 -12 0 -14 6 -4 10 -7
10 -14 1 -5 -7 -14 -9 -22 -3 -8 4 -20 6 -28 3 -7 -3 -13 0 -13 6 0 7 -8 8
-22 3 -13 -5 -30 -8 -38 -7 -8 0 -26 -5 -40 -12 -14 -7 -31 -13 -38 -13 -7 0
-15 -7 -18 -15 -7 -16 -64 -48 -64 -35 0 4 -16 8 -35 8 -22 0 -33 -4 -28 -11
4 -6 0 -8 -10 -4 -9 3 -19 2 -22 -3 -3 -5 -12 -7 -20 -4 -21 8 -65 -25 -58
-43 5 -12 3 -14 -7 -8 -10 6 -12 4 -7 -8 5 -12 -1 -19 -19 -23 -14 -4 -23 -9
-20 -12 3 -3 -3 -12 -14 -19 -11 -8 -18 -19 -15 -24 4 -5 2 -9 -2 -9 -15 0 -6
-55 12 -84 9 -14 22 -23 28 -19 5 3 7 2 4 -4 -7 -11 35 -63 52 -63 7 0 11 -6
9 -12 -2 -7 1 -14 5 -15 4 -1 18 -8 30 -16 13 -8 32 -17 42 -20 11 -2 2 -5
-21 -4 -22 0 -47 -4 -54 -8 -9 -6 -11 -4 -5 4 6 10 3 11 -14 2 -12 -7 -21 -8
-21 -2 0 11 -40 11 -55 1 -5 -4 -18 -6 -27 -5 -10 2 -18 0 -18 -4 0 -3 -17 -6
-38 -5 -47 1 -79 -22 -87 -62 -2 -16 -8 -40 -11 -54 -9 -37 -6 -62 6 -70 14
-8 14 -9 -5 -53 -12 -30 -12 -37 2 -57 12 -18 13 -21 2 -15 -12 8 -12 6 0 -8
8 -10 15 -27 16 -40 1 -12 3 -28 4 -35 0 -7 5 -10 11 -7 9 5 15 -15 11 -37 0
-4 6 -5 14 -2 8 4 15 2 16 -2 1 -5 2 -24 4 -43 2 -19 10 -40 19 -46 9 -7 16
-22 16 -34 0 -12 6 -21 15 -21 8 0 14 -6 13 -12 -2 -7 3 -12 10 -10 8 1 11 -1
8 -6 -6 -10 54 -82 68 -82 5 0 17 -9 27 -21 9 -11 30 -22 46 -23 15 -2 28 -8
28 -14 0 -6 3 -14 7 -18 4 -3 6 3 3 15 -2 13 4 26 17 35 19 14 24 13 49 -1 15
-9 25 -21 22 -27 -4 -6 -2 -7 3 -3 5 5 9 18 9 30 1 12 6 21 13 20 6 -2 9 4 6
12 -4 9 1 18 11 21 9 4 12 9 7 13 -14 8 -20 56 -7 56 6 0 9 -6 9 -12 -1 -7 4
-13 11 -13 9 0 11 -8 8 -23 -3 -12 -3 -19 0 -16 4 3 8 14 10 25 3 22 26 64 27
49 0 -5 7 1 16 13 8 12 20 20 25 17 5 -4 6 2 2 12 -6 16 -5 16 10 4 11 -9 17
-10 17 -2 0 6 -5 11 -12 11 -6 0 -8 3 -4 8 4 4 13 7 19 7 7 0 13 7 13 15 3 32
6 34 14 15 8 -19 9 -19 9 2 1 13 4 22 9 22 23 -4 34 2 25 14 -6 6 -13 21 -17
32 -5 16 -2 15 13 -5 15 -19 23 -22 32 -13 6 6 17 9 24 7 9 -4 12 3 11 19 0
14 -4 23 -8 21 -4 -2 -10 1 -14 7 -4 7 -3 9 4 5 6 -3 15 2 21 11 6 11 11 13
11 5 0 -7 4 -11 8 -8 5 3 9 -1 9 -9 0 -8 -3 -13 -6 -12 -7 2 -11 -8 -11 -25 0
-7 5 -5 11 5 8 13 14 15 23 8 9 -8 13 -7 13 4 0 8 -4 12 -9 9 -4 -3 -7 6 -6
19 2 20 7 23 39 23 21 0 35 -4 33 -8 -3 -5 -9 -6 -14 -3 -4 3 -7 -3 -5 -12 2
-10 4 -21 4 -25 1 -5 6 -8 12 -8 8 0 8 4 1 13 -8 10 -7 17 7 28 26 21 48 25
32 5 -14 -16 -7 -36 12 -36 7 0 6 4 -3 10 -8 5 -12 11 -9 15 8 7 49 -29 49
-44 0 -6 5 -11 12 -11 6 0 8 -3 5 -7 -4 -3 2 -20 13 -38 11 -18 17 -35 13 -38
-3 -4 0 -7 7 -7 7 0 10 -3 7 -7 -4 -3 -2 -12 4 -20 6 -7 9 -13 6 -13 -3 0 0
-15 8 -34 8 -18 12 -36 9 -39 -3 -3 -2 -12 2 -19 14 -21 17 -49 15 -138 -2
-109 -4 -130 -14 -130 -5 0 -7 -6 -5 -12 3 -7 -1 -24 -8 -37 -7 -14 -11 -28
-8 -33 3 -4 1 -8 -3 -8 -5 0 -9 -9 -10 -21 -1 -12 -10 -27 -20 -35 -10 -7 -14
-14 -9 -14 5 0 0 -10 -11 -22 -11 -13 -29 -39 -40 -58 -16 -28 -17 -38 -7 -47
9 -9 17 -8 33 6 11 10 18 21 15 24 -3 3 4 8 15 12 12 3 19 11 16 16 -4 5 -2 9
3 9 5 0 17 15 27 34 11 19 22 33 27 30 4 -3 5 2 2 10 -3 8 3 25 15 37 11 12
18 26 15 31 -3 4 0 8 6 8 6 0 9 4 6 9 -4 5 -3 11 1 13 5 1 16 17 25 33 10 17
22 29 27 28 5 -2 8 6 6 17 -2 11 1 19 8 17 6 -1 11 3 12 9 0 14 35 48 35 35 0
-6 4 -11 10 -11 5 0 7 6 4 14 -3 9 3 17 15 21 12 3 18 11 15 17 -4 6 -2 8 4 4
6 -3 18 2 28 11 9 10 33 17 54 18 28 0 36 3 29 12 -7 8 -5 10 10 6 12 -3 18
-10 15 -15 -5 -7 -1 -7 11 0 21 11 57 -1 91 -30 11 -10 24 -15 28 -11 4 4 4
-1 0 -11 -5 -13 -4 -17 4 -12 6 3 13 -3 17 -14 4 -12 11 -17 18 -14 7 4 9 4 5
-1 -4 -4 4 -22 18 -41 14 -18 23 -38 19 -43 -3 -7 0 -8 9 -5 9 3 16 1 16 -5 0
-18 43 -59 65 -63 11 -2 25 -10 32 -18 7 -8 13 -10 13 -5 0 6 5 3 10 -5 8 -13
10 -13 10 -1 0 11 4 10 16 -5 8 -10 12 -13 8 -5 -5 10 -3 13 9 8 9 -3 18 1 21
10 6 14 9 13 29 -5 17 -16 26 -18 37 -11 12 9 12 10 -3 5 -27 -9 -33 22 -8 48
12 12 18 26 14 30 -5 4 -3 6 2 4 6 -2 10 2 10 7 0 6 -4 9 -8 7 -5 -1 -5 3 0
10 4 7 8 15 8 18 2 15 32 50 43 50 7 0 10 5 7 10 -4 6 -11 7 -17 4 -7 -4 -8
-2 -4 5 4 6 12 8 18 5 8 -5 9 -1 5 10 -5 11 -3 15 4 10 7 -4 10 -1 7 7 -3 8
-11 13 -17 11 -7 -1 -5 7 4 22 11 17 13 26 5 31 -6 4 -9 13 -6 20 2 7 -2 16
-11 19 -8 4 -13 13 -9 21 3 8 1 15 -4 15 -6 0 -10 8 -10 18 1 16 1 16 11 0 12
-22 26 -23 26 -3 0 8 -4 15 -9 15 -4 0 -8 5 -8 10 0 6 8 5 20 -2 11 -7 15 -15
9 -19 -6 -4 -4 -9 7 -13 9 -3 19 -4 22 -1 3 3 0 5 -7 5 -7 0 -9 5 -6 10 5 8
11 8 20 0 15 -12 16 5 2 27 -4 6 -3 14 3 18 5 3 10 1 10 -4 0 -6 4 -11 8 -11
5 0 9 7 9 15 0 8 -4 12 -8 10 -3 -3 -12 2 -19 10 -12 15 -30 12 -30 -5 0 -5 8
-7 18 -3 16 6 16 5 -1 -14 -9 -11 -15 -23 -12 -26 3 -4 -3 -1 -12 7 -15 14
-15 17 0 39 12 19 13 27 4 36 -7 7 -7 12 -2 11 22 -5 29 1 15 10 -12 8 -12 10
-1 10 11 0 11 3 0 17 -10 11 -10 14 -1 9 7 -4 12 -1 12 9 0 9 -4 14 -8 11 -5
-3 -9 1 -9 9 0 8 4 12 9 9 4 -3 8 2 8 11 0 10 -5 13 -12 9 -10 -6 -9 -3 0 8
10 13 11 22 2 37 -6 12 -7 21 -3 21 4 0 2 5 -4 11 -6 6 -9 18 -6 27 4 10 2 13
-5 8 -15 -9 -16 6 -1 21 9 9 6 10 -11 6 -18 -5 -22 -3 -18 8 4 9 -1 15 -11 16
-9 1 -29 4 -46 7 -16 3 -36 -1 -44 -7 -12 -10 -13 -9 -6 3 7 13 6 13 -7 2 -9
-7 -20 -12 -24 -10 -14 4 -104 -26 -104 -34 0 -4 -9 -8 -20 -8 -11 0 -20 -4
-20 -10 0 -5 -7 -10 -16 -10 -8 0 -12 -4 -9 -10 3 -5 1 -10 -6 -10 -16 0 -50
-38 -74 -83 -11 -20 -24 -37 -29 -37 -5 0 -7 -3 -3 -6 20 -21 -121 -178 -193
-215 -22 -12 -40 -25 -40 -31 0 -5 -4 -6 -10 -3 -5 3 -10 1 -10 -5 0 -6 -4 -8
-10 -5 -5 3 -10 1 -10 -6 0 -7 -3 -10 -6 -6 -3 3 -19 -8 -35 -24 -16 -17 -34
-27 -41 -23 -7 4 -8 3 -4 -4 4 -6 -2 -19 -14 -29 -11 -10 -20 -23 -20 -30 0
-7 -8 -13 -17 -13 -15 0 -16 2 -3 10 13 9 13 10 0 10 -11 0 -11 3 -3 8 7 4 11
30 11 64 -1 35 -5 55 -11 51 -6 -4 -7 -1 -1 8 13 22 15 49 3 49 -8 0 -8 5 1
15 8 9 8 15 2 15 -6 0 -11 8 -11 18 0 9 -1 36 -3 60 -2 23 1 42 6 42 5 0 3 7
-4 15 -15 18 1 20 19 2 11 -10 12 -9 7 1 -4 7 -2 21 5 30 11 14 11 15 -1 4
-20 -17 -26 -15 -26 8 0 11 3 20 6 20 4 0 7 15 8 33 2 17 3 44 4 59 1 15 6 24
10 22 4 -3 9 5 10 18 2 42 3 45 17 61 7 9 10 20 7 26 -3 5 1 11 9 15 8 3 12
12 9 21 -3 8 -2 15 3 15 4 0 14 9 21 21 11 17 11 20 0 13 -7 -4 -2 6 12 22 14
16 28 30 32 32 4 2 4 11 1 20 -6 15 -4 15 9 4 14 -11 16 -10 11 7 -3 12 -1 21
6 21 6 0 11 4 11 10 0 9 47 60 56 60 3 0 2 -6 -2 -12 -5 -9 -2 -9 9 1 18 15
23 26 7 16 -5 -3 -10 -2 -10 3 0 16 27 21 40 9 10 -10 11 -8 6 8 -4 11 -4 16
0 12 4 -4 13 1 19 10 11 15 12 14 10 -10 -2 -15 1 -27 6 -27 5 0 9 -8 9 -17 1
-10 7 -4 15 15 8 19 19 31 25 27 6 -4 17 -1 25 5 11 10 15 10 15 1 0 -7 4 -10
9 -6 5 3 12 1 16 -5 3 -5 11 -10 18 -10 6 0 3 6 -8 13 -17 13 -17 14 6 22 13
4 27 8 31 9 3 0 10 4 14 8 3 4 -3 6 -14 3 -12 -2 -23 3 -26 11 -4 10 -2 12 5
8 7 -4 21 -7 33 -8 17 -1 21 -7 21 -33 -1 -17 3 -29 8 -26 4 3 6 12 3 20 -10
26 5 36 24 16 9 -10 20 -25 24 -33 3 -8 4 -2 1 13 l-6 28 28 -18 c15 -10 30
-20 33 -24 3 -3 13 -5 23 -3 9 1 17 -3 17 -9 0 -5 3 -7 7 -4 3 4 17 0 30 -8
13 -9 23 -13 23 -9 0 4 6 2 13 -3 6 -6 20 -9 30 -8 9 2 17 -1 17 -6 0 -6 6 -9
13 -8 6 1 25 1 41 0 23 -1 27 -5 23 -20 -3 -13 0 -18 12 -16 9 2 19 4 24 4 4
1 7 6 7 12 0 8 -5 8 -15 -1 -9 -7 -15 -8 -15 -2 0 14 28 23 36 11 4 -7 10 -6
18 0 7 6 16 8 20 4 4 -4 11 -2 15 6 7 10 9 10 14 -2 4 -11 -1 -14 -21 -12 -24
2 -25 2 -7 -11 13 -10 22 -11 32 -3 7 6 11 15 8 19 -3 5 0 12 6 16 8 4 9 3 5
-4 -10 -16 7 -15 23 1 11 10 13 10 7 0 -4 -7 -2 -13 3 -13 6 0 11 5 11 11 0 5
5 7 10 4 6 -4 8 -11 5 -16 -4 -5 -1 -9 5 -9 7 0 9 8 5 20 -5 16 -2 19 12 17
10 -1 24 -6 31 -10 7 -5 12 -4 12 2 0 6 -4 12 -10 12 -5 1 -14 2 -20 3 -5 0
-10 4 -10 9 0 4 0 10 0 13 0 4 7 1 15 -6 12 -10 18 -10 31 1 15 12 16 11 10
-11 -6 -21 -5 -22 4 -7 6 9 8 22 5 27 -3 6 -1 10 4 10 10 0 15 -14 12 -33 -1
-5 3 -6 9 -2 7 4 7 12 0 26 -11 20 -2 25 18 9 9 -7 9 -7 2 3 -13 15 -59 17
-57 2 1 -5 -4 -9 -11 -7 -8 1 -11 -2 -6 -10 5 -10 4 -11 -6 -1 -12 11 -11 15
5 27 11 8 23 12 27 10 9 -6 38 37 32 48 -8 12 10 10 23 -3 8 -8 13 -8 18 0 4
7 1 10 -7 9 -7 -2 -12 4 -12 13 1 10 -5 16 -15 14 -9 -1 -16 -11 -15 -23 1
-12 -2 -19 -7 -16 -5 3 -6 -3 -2 -12 6 -15 4 -15 -13 2 -16 15 -17 21 -7 27 7
5 10 14 6 20 -10 16 -13 37 -5 36 20 -3 25 2 12 11 -10 6 -11 10 -2 10 6 0 12
5 12 11 0 5 -6 7 -12 3 -7 -4 -10 -4 -6 1 4 4 2 15 -5 23 -8 11 -8 14 0 9 6
-4 14 -3 18 3 6 9 -8 14 -28 11 -5 -1 -6 3 -2 9 3 5 8 22 10 37 1 16 4 33 5
38 5 23 -1 35 -17 35 -17 1 -17 1 0 11 9 5 17 18 16 27 0 14 -2 14 -8 -2 -7
-18 -10 -17 -36 13 -28 30 -43 67 -24 55 5 -3 9 0 9 6 0 8 6 7 21 -1 16 -8 24
-8 33 1 8 8 6 9 -9 4 -18 -7 -19 -6 -5 12 14 18 14 18 -4 4 -16 -13 -20 -12
-37 9 -11 13 -19 19 -19 14 0 -5 5 -14 12 -21 8 -8 8 -12 1 -12 -14 0 -24 26
-17 44 3 8 13 12 22 9 14 -4 15 -3 2 5 -10 8 -18 8 -27 0 -9 -7 -13 -7 -13 1
0 21 -3 26 -22 39 -10 7 -16 18 -13 23 4 5 -1 12 -10 15 -14 6 -14 8 2 19 10
7 22 11 27 8 5 -4 6 -1 2 5 -4 7 -13 12 -21 12 -8 0 -12 8 -10 20 2 11 -1 20
-6 20 -6 0 -7 5 -3 11 4 8 9 7 15 -2 4 -7 6 -16 3 -20 -6 -11 24 -31 36 -24 8
5 4 12 -9 22 -19 13 -21 40 -2 29 4 -3 8 1 8 8 0 7 -6 13 -13 13 -7 0 -11 -4
-9 -8 3 -4 -5 -6 -18 -5 -14 0 -23 8 -24 21 -5 52 -11 70 -21 71 -7 1 -19 2
-28 3 -8 0 -12 6 -8 12 4 7 1 10 -6 7 -7 -2 -25 7 -40 21 -21 21 -25 30 -18
45 8 14 7 16 -2 11 -8 -5 -19 1 -29 13 -21 28 -74 35 -104 13 -12 -9 -31 -21
-42 -27 -11 -6 -20 -16 -20 -22 0 -6 -4 -14 -9 -19 -5 -5 -6 -3 -2 5 4 6 3 12
-3 12 -5 0 -13 -9 -16 -20 -3 -11 -12 -20 -20 -20 -7 0 -12 -8 -11 -17 0 -10
-5 -17 -12 -15 -7 1 -12 -5 -10 -15 2 -12 -4 -18 -19 -19 -12 -1 -20 2 -17 7
2 4 12 6 22 3 14 -5 14 -3 -2 10 -17 14 -18 16 -3 16 20 0 23 16 5 24 -7 3 -4
4 6 3 10 -1 21 4 23 11 3 8 -2 10 -14 6 -13 -4 -15 -3 -4 4 11 8 11 10 0 15
-8 2 -2 4 12 3 19 -1 25 -5 21 -16 -7 -20 3 -10 17 18 11 21 11 23 -6 13 -11
-5 -24 -7 -29 -3 -11 7 -14 52 -4 52 14 0 19 -14 9 -26 -7 -8 -7 -14 1 -19 5
-3 10 1 10 10 0 10 5 13 13 9 7 -5 6 0 -3 11 -14 17 -13 18 2 12 10 -3 20 -2
23 3 3 4 -7 7 -21 5 -15 -1 -28 3 -31 11 -3 8 -10 11 -17 7 -6 -3 -6 -1 2 8
14 16 16 33 2 24 -5 -3 -10 -1 -10 6 0 12 -54 68 -67 70 -31 5 -53 5 -53 0 0
-4 -9 -7 -20 -7 -11 0 -20 5 -20 11 0 5 -5 3 -10 -5 -7 -11 -10 -11 -10 -2 0
7 -4 10 -10 7 -5 -3 -10 -2 -10 3 0 9 -13 10 -42 4z m227 -339 c-9 -9 -13 -23
-10 -31 3 -9 2 -13 -2 -8 -16 15 -9 52 9 53 17 2 17 0 3 -14z m-30 -53 c-3 -5
-12 -10 -18 -10 -7 0 -6 4 3 10 19 12 23 12 15 0z m-73 -638 c9 -9 8 -12 -7
-14 -35 -2 -40 -3 -52 -11 -7 -5 -17 -6 -22 -2 -5 3 -17 -5 -25 -17 l-16 -22
0 27 c0 15 5 27 11 27 5 0 8 4 5 8 -3 5 1 9 9 9 8 0 13 -5 12 -10 -1 -5 3 -11
10 -14 7 -3 11 3 8 15 -3 15 2 19 25 18 16 -1 35 -7 42 -14z m696 5 c8 -10 6
-13 -7 -13 -11 0 -17 6 -14 13 3 7 6 13 8 13 1 0 7 -6 13 -13z m-1302 -184
c-10 -11 -19 -7 -22 10 -2 15 0 16 12 6 8 -6 12 -14 10 -16z m-222 -329 c9 -8
16 -18 16 -21 0 -4 -3 -3 -7 0 -3 4 -12 2 -20 -5 -7 -6 -16 -8 -20 -4 -3 3 -1
6 5 6 19 0 14 28 -5 33 -16 4 -16 5 -1 6 9 0 24 -6 32 -15z m-69 -35 c-4 -5
-1 -9 4 -9 6 0 11 -4 11 -9 0 -6 -9 -8 -19 -6 -20 4 -35 -17 -33 -45 1 -11 0
-11 -4 -2 -4 9 -16 -1 -36 -27 -16 -23 -33 -41 -36 -42 -4 0 -17 -2 -29 -5
-13 -2 -23 0 -23 5 0 14 28 33 40 26 5 -3 10 -2 10 4 0 5 -3 11 -7 14 -5 2 -2
2 5 1 6 -2 12 1 12 6 0 6 -4 10 -10 10 -5 0 -2 8 8 18 20 22 31 19 12 -3 -7
-8 -9 -15 -4 -15 13 1 49 29 50 40 1 6 2 15 3 21 0 5 6 7 13 3 7 -5 9 -2 5 9
-4 12 -2 14 10 10 12 -5 14 -3 8 7 -5 9 -4 11 4 6 6 -4 9 -12 6 -17z m-135
-163 c0 -3 -4 -8 -10 -11 -5 -3 -10 -1 -10 4 0 6 5 11 10 11 6 0 10 -2 10 -4z
m-65 -36 c-3 -5 -1 -11 5 -15 14 -9 -12 -46 -28 -40 -9 3 -10 0 -2 -15 13 -25
-2 -26 -24 -1 -10 11 -14 25 -10 35 5 14 9 15 15 4 6 -10 11 -10 21 0 9 9 9
12 0 12 -7 0 -12 8 -12 18 0 14 2 15 10 2 9 -14 14 -7 11 13 -1 5 3 6 9 2 6
-3 8 -10 5 -15z"/>
<path d="M1675 1430 c-2 -3 5 -6 15 -7 11 -1 22 2 24 5 3 4 -4 8 -15 8 -11 0
-22 -3 -24 -6z"/>
<path d="M748 803 c-18 -21 -31 -43 -25 -43 2 0 13 14 25 30 25 33 24 41 0 13z"/>
<path d="M686 762 c-3 -5 1 -9 9 -9 8 0 15 4 15 9 0 4 -4 8 -9 8 -6 0 -12 -4
-15 -8z"/>
<path d="M623 673 c4 -3 1 -13 -6 -22 -11 -14 -10 -14 5 -2 16 12 16 31 1 31
-4 0 -3 -3 0 -7z"/>
<path d="M580 641 c0 -6 4 -13 10 -16 6 -3 7 1 4 9 -7 18 -14 21 -14 7z"/>
<path d="M1880 2400 c-8 -5 -10 -10 -5 -10 6 0 17 5 25 10 8 5 11 10 5 10 -5
0 -17 -5 -25 -10z"/>
<path d="M1881 2354 c0 -11 3 -14 6 -6 3 7 2 16 -1 19 -3 4 -6 -2 -5 -13z"/>
<path d="M1930 2300 c-9 -6 -10 -10 -3 -10 6 0 15 5 18 10 8 12 4 12 -15 0z"/>
<path d="M2176 2235 c4 -8 8 -15 10 -15 2 0 4 7 4 15 0 8 -4 15 -10 15 -5 0
-7 -7 -4 -15z"/>
<path d="M2273 2183 c4 -3 1 -13 -6 -22 -11 -14 -10 -14 5 -2 16 12 16 31 1
31 -4 0 -3 -3 0 -7z"/>
<path d="M2276 2142 c-2 -4 -1 -14 4 -22 7 -11 9 -9 7 8 -1 24 -3 26 -11 14z"/>
<path d="M2333 2013 c-3 -8 -12 -12 -19 -9 -16 6 -28 -10 -14 -19 6 -4 8 -10
5 -15 -3 -5 4 -14 15 -20 12 -6 18 -16 14 -23 -5 -8 -2 -8 7 1 9 8 10 15 4 20
-6 4 -17 16 -25 26 -14 18 -13 18 10 13 14 -4 20 -4 13 -1 -7 3 -9 12 -6 20 3
7 9 12 13 9 5 -3 11 -2 14 3 3 5 -2 9 -10 9 -9 0 -18 -7 -21 -14z"/>
<path d="M2357 1976 c-17 -13 -17 -14 0 -20 10 -4 14 -4 10 0 -4 4 -2 13 4 21
14 17 9 16 -14 -1z"/>
<path d="M2393 1898 c1 -7 -4 -12 -11 -10 -8 1 -11 -2 -7 -8 5 -8 11 -8 21 1
7 6 11 15 8 20 -8 13 -14 11 -11 -3z"/>
<path d="M2366 1821 c-3 -4 6 -19 19 -31 14 -13 25 -19 25 -13 0 6 -6 14 -12
16 -8 3 -7 6 4 6 9 1 19 5 22 10 4 5 -3 7 -14 4 -11 -3 -20 0 -20 6 0 13 -16
15 -24 2z"/>
<path d="M1095 1770 c3 -4 14 -10 25 -13 11 -3 18 -2 15 3 -3 4 -14 10 -25 13
-11 3 -18 2 -15 -3z"/>
<path d="M1096 1738 c3 -5 10 -6 15 -3 13 9 11 12 -6 12 -8 0 -12 -4 -9 -9z"/>
<path d="M2455 1740 c3 -5 8 -10 11 -10 2 0 4 5 4 10 0 6 -5 10 -11 10 -5 0
-7 -4 -4 -10z"/>
<path d="M1060 1736 c0 -2 7 -7 16 -10 8 -3 12 -2 9 4 -6 10 -25 14 -25 6z"/>
<path d="M2436 1727 c3 -10 9 -15 12 -12 3 3 0 11 -7 18 -10 9 -11 8 -5 -6z"/>
<path d="M2466 1695 c4 -8 11 -15 16 -15 6 0 5 6 -2 15 -7 8 -14 15 -16 15 -2
0 -1 -7 2 -15z"/>
<path d="M2438 1688 c-4 -10 -3 -18 2 -18 6 0 5 -9 -2 -20 -11 -16 -10 -22 6
-33 14 -10 16 -16 7 -21 -9 -6 -9 -11 -1 -21 7 -8 9 -18 6 -23 -3 -5 1 -9 9
-9 13 0 13 4 0 24 -15 23 -15 23 7 20 13 -2 17 -2 9 1 -11 3 -9 9 10 24 24 19
24 19 1 8 -13 -6 -26 -9 -30 -6 -3 3 -2 6 2 6 4 0 2 9 -4 20 -13 25 5 27 19 3
9 -16 10 -16 8 4 0 12 -4 21 -7 21 -19 -2 -29 4 -32 20 -3 16 -4 16 -10 0z
m16 -54 c3 -8 2 -12 -4 -9 -6 3 -10 10 -10 16 0 14 7 11 14 -7z"/>
<path d="M1134 1659 c-4 -7 -3 -9 4 -5 6 3 15 -2 21 -11 6 -10 11 -13 11 -7 0
20 -27 37 -36 23z"/>
<path d="M1086 1647 c3 -10 9 -15 12 -12 3 3 0 11 -7 18 -10 9 -11 8 -5 -6z"/>
<path d="M1140 1602 c0 -4 9 -8 19 -8 11 0 17 4 15 8 -3 4 -12 8 -20 8 -8 0
-14 -4 -14 -8z"/>
<path d="M1106 1541 c1 -31 3 -58 4 -61 1 -3 2 -8 1 -12 -2 -15 14 -8 26 11
11 17 9 21 -9 27 -16 5 -18 8 -7 15 11 7 11 9 1 9 -7 0 -11 4 -7 10 3 5 11 8
18 6 7 -1 8 -1 4 2 -4 2 -3 10 3 16 7 10 4 16 -13 23 -22 10 -23 10 -21 -46z
m24 30 c0 -6 -4 -12 -8 -15 -5 -3 -9 1 -9 9 0 8 4 15 9 15 4 0 8 -4 8 -9z m0
-81 c0 -5 -2 -10 -4 -10 -3 0 -8 5 -11 10 -3 6 -1 10 4 10 6 0 11 -4 11 -10z"/>
<path d="M1140 1519 c0 -5 5 -7 10 -4 6 3 10 8 10 11 0 2 -4 4 -10 4 -5 0 -10
-5 -10 -11z"/>
<path d="M2441 1516 c-6 -7 -8 -15 -5 -18 6 -6 54 14 54 22 0 12 -39 8 -49 -4z"/>
<path d="M1165 1480 c-3 -6 1 -7 9 -4 18 7 21 14 7 14 -6 0 -13 -4 -16 -10z"/>
<path d="M1135 1411 c-3 -5 -2 -12 3 -15 5 -3 9 1 9 9 0 17 -3 19 -12 6z"/>
<path d="M1758 1403 c7 -3 16 -2 19 1 4 3 -2 6 -13 5 -11 0 -14 -3 -6 -6z"/>
<path d="M1544 1372 c4 -7 2 -19 -4 -27 -9 -11 -9 -15 -1 -15 6 0 11 5 11 10
0 6 7 10 15 10 8 0 15 5 15 12 0 6 -3 8 -7 5 -3 -4 -13 -1 -21 6 -13 10 -14 9
-8 -1z"/>
<path d="M1955 1360 c-3 -5 -1 -10 4 -10 6 0 11 5 11 10 0 6 -2 10 -4 10 -3 0
-8 -4 -11 -10z"/>
<path d="M1154 1326 c1 -8 5 -18 8 -22 4 -3 5 1 4 10 -1 8 -5 18 -8 22 -4 3
-5 -1 -4 -10z"/>
<path d="M1570 1330 c-9 -6 -10 -10 -3 -10 6 0 15 5 18 10 8 12 4 12 -15 0z"/>
<path d="M2367 1324 c6 -15 23 -19 23 -5 0 5 -7 11 -14 14 -10 4 -13 1 -9 -9z"/>
<path d="M1496 1322 c-3 -5 1 -9 9 -9 8 0 15 4 15 9 0 4 -4 8 -9 8 -6 0 -12
-4 -15 -8z"/>
<path d="M2296 1313 c-3 -3 -6 -11 -6 -17 0 -6 4 -6 8 2 7 10 15 7 38 -10 19
-15 24 -17 15 -5 -18 23 -46 38 -55 30z"/>
<path d="M2400 1300 c-8 -5 -10 -10 -5 -10 6 0 17 5 25 10 8 5 11 10 5 10 -5
0 -17 -5 -25 -10z"/>
<path d="M2073 1285 c0 -8 4 -12 9 -9 5 3 6 10 3 15 -9 13 -12 11 -12 -6z"/>
<path d="M1130 1286 c0 -2 7 -7 16 -10 8 -3 12 -2 9 4 -6 10 -25 14 -25 6z"/>
<path d="M2233 1275 c0 -8 4 -12 9 -9 5 3 6 10 3 15 -9 13 -12 11 -12 -6z"/>
<path d="M1469 1243 c-13 -16 -12 -17 4 -4 16 13 21 21 13 21 -2 0 -10 -8 -17
-17z"/>
<path d="M1107 1156 c-12 -30 17 -35 33 -6 7 14 7 20 0 20 -5 0 -10 -7 -10
-15 0 -8 -4 -15 -10 -15 -5 0 -7 7 -4 15 4 8 4 15 1 15 -3 0 -7 -6 -10 -14z"/>
<path d="M1146 1134 c-5 -14 -4 -15 9 -4 17 14 19 20 6 20 -5 0 -12 -7 -15
-16z"/>
<path d="M1125 1102 c2 -9 4 -19 5 -22 1 -3 2 -9 1 -13 -1 -4 8 -3 19 3 11 6
20 15 20 21 0 6 5 7 12 3 7 -5 8 -3 3 6 -6 10 -11 10 -20 -3 -15 -21 -26 -22
-19 -3 3 7 -1 16 -9 19 -10 4 -14 0 -12 -11z"/>
<path d="M1146 1053 c-11 -11 -6 -23 9 -23 8 0 15 4 15 9 0 13 -16 22 -24 14z"/>
<path d="M1180 1026 c0 -2 8 -10 18 -17 15 -13 16 -12 3 4 -13 16 -21 21 -21
13z"/>
<path d="M1156 1005 c4 -8 10 -15 16 -15 5 0 6 -5 2 -12 -4 -7 -3 -8 4 -4 9 5
8 12 -1 26 -14 23 -29 27 -21 5z"/>
<path d="M2193 975 c0 -8 4 -12 9 -9 5 3 6 10 3 15 -9 13 -12 11 -12 -6z"/>
<path d="M985 960 c-3 -5 1 -10 9 -10 9 0 16 5 16 10 0 6 -4 10 -9 10 -6 0
-13 -4 -16 -10z"/>
<path d="M1196 958 c3 -5 10 -6 15 -3 13 9 11 12 -6 12 -8 0 -12 -4 -9 -9z"/>
<path d="M2165 960 c-3 -5 -1 -10 4 -10 6 0 11 5 11 10 0 6 -2 10 -4 10 -3 0
-8 -4 -11 -10z"/>
<path d="M2181 941 c-10 -6 -10 -10 -1 -16 9 -6 9 -10 -1 -16 -11 -7 -11 -9
-1 -9 10 0 10 -5 1 -21 -9 -17 -8 -20 2 -14 9 6 10 3 5 -11 -14 -35 -15 -54
-3 -54 7 0 4 -5 -6 -11 -9 -6 -15 -15 -12 -20 4 -5 11 -7 16 -4 5 4 9 2 9 -2
0 -5 10 -9 23 -10 21 -2 21 -2 2 9 -29 16 -29 16 -14 35 9 11 10 14 2 9 -7 -4
-13 -3 -13 2 0 16 13 22 26 11 8 -7 14 -6 20 2 4 7 3 9 -4 5 -6 -3 -17 8 -26
25 -19 38 -20 47 -4 31 7 -7 17 -12 22 -12 6 0 0 7 -12 16 -19 13 -21 18 -10
32 10 12 10 14 1 8 -7 -4 -13 -3 -13 3 0 5 6 12 13 14 6 3 8 6 2 6 -5 0 -16
-3 -24 -8z m10 -114 c-10 -9 -11 -8 -5 6 3 10 9 15 12 12 3 -3 0 -11 -7 -18z"/>
<path d="M2226 942 c-3 -5 1 -9 9 -9 8 0 12 4 9 9 -3 4 -7 8 -9 8 -2 0 -6 -4
-9 -8z"/>
<path d="M1001 924 c0 -11 3 -14 6 -6 3 7 2 16 -1 19 -3 4 -6 -2 -5 -13z"/>
<path d="M1310 921 c0 -6 4 -13 10 -16 6 -3 7 1 4 9 -7 18 -14 21 -14 7z"/>
<path d="M1055 901 c-3 -5 -2 -12 3 -15 5 -3 9 1 9 9 0 17 -3 19 -12 6z"/>
<path d="M2215 900 c3 -5 8 -10 11 -10 2 0 4 5 4 10 0 6 -5 10 -11 10 -5 0 -7
-4 -4 -10z"/>
<path d="M860 839 c0 -5 5 -7 10 -4 6 3 10 8 10 11 0 2 -4 4 -10 4 -5 0 -10
-5 -10 -11z"/>
<path d="M899 833 c-13 -16 -12 -17 4 -4 9 7 17 15 17 17 0 8 -8 3 -21 -13z"/>
<path d="M816 795 c-9 -26 -7 -32 5 -12 6 10 9 21 6 23 -2 3 -7 -2 -11 -11z"/>
<path d="M1330 779 c0 -5 5 -7 10 -4 6 3 10 8 10 11 0 2 -4 4 -10 4 -5 0 -10
-5 -10 -11z"/>
<path d="M2215 780 c3 -5 8 -10 11 -10 2 0 4 5 4 10 0 6 -5 10 -11 10 -5 0 -7
-4 -4 -10z"/>
<path d="M775 749 c-4 -6 -5 -12 -2 -15 2 -3 7 2 10 11 7 17 1 20 -8 4z"/>
<path d="M736 722 c-2 -4 4 -8 14 -8 10 0 16 4 14 8 -3 4 -9 8 -14 8 -5 0 -11
-4 -14 -8z"/>
<path d="M1313 687 c0 -8 6 -14 14 -14 9 0 10 4 2 14 -6 7 -12 13 -14 13 -1 0
-2 -6 -2 -13z"/>
<path d="M2120 650 c-17 -11 -11 -19 19 -25 18 -3 20 -1 11 16 -12 22 -11 21
-30 9z"/>
<path d="M2170 650 c-11 -7 -11 -10 -2 -10 8 0 10 -5 6 -12 -4 -7 -3 -9 1 -5
7 6 17 37 12 37 -1 0 -9 -5 -17 -10z"/>
<path d="M660 642 c0 -5 7 -9 15 -9 8 0 12 4 9 9 -3 4 -9 8 -15 8 -5 0 -9 -4
-9 -8z"/>
<path d="M2130 599 c0 -6 4 -8 9 -5 16 10 20 -22 5 -35 -13 -10 -13 -14 1 -29
12 -13 12 -19 2 -29 -6 -6 -12 -15 -12 -20 0 -4 -11 -18 -25 -32 -27 -26 -33
-50 -13 -56 8 -3 11 3 8 16 -2 11 3 25 11 32 10 8 14 8 14 0 0 -6 -4 -11 -9
-11 -4 0 -8 -10 -7 -22 1 -13 -3 -24 -7 -25 -14 -2 -67 -56 -67 -67 0 -6 4 -5
9 3 7 11 9 11 14 0 5 -11 9 -10 20 3 11 14 17 15 28 5 7 -7 5 -2 -5 11 -11 12
-17 24 -14 27 3 3 11 -1 18 -10 7 -8 18 -15 24 -15 6 0 3 5 -6 11 -15 8 -16
13 -6 29 7 10 17 16 23 13 5 -3 4 0 -2 8 -7 7 -13 17 -13 22 0 4 6 5 13 0 18
-11 36 -12 42 -3 3 5 -4 7 -15 5 -12 -2 -24 3 -30 16 -12 22 -1 25 20 7 12
-11 12 -10 3 2 -12 16 -12 44 0 56 4 4 1 14 -6 22 -10 13 -9 15 8 9 20 -7 20
-7 1 8 -11 8 -14 15 -7 15 8 0 10 7 6 19 -5 17 -2 19 22 15 15 -3 25 -2 21 1
-11 12 -78 15 -78 4z m-48 -256 c-6 -2 -9 -10 -6 -15 4 -7 2 -8 -5 -4 -13 9
-5 26 12 25 9 0 8 -2 -1 -6z"/>
<path d="M545 589 c-4 -6 -4 -13 -1 -16 3 -4 6 -1 6 6 0 7 5 9 10 6 6 -3 10
-1 10 4 0 14 -17 14 -25 0z"/>
<path d="M558 558 c-9 -5 -6 -7 9 -5 12 2 25 6 28 8 8 9 -23 6 -37 -3z"/>
<path d="M1615 560 c3 -5 8 -10 11 -10 2 0 4 5 4 10 0 6 -5 10 -11 10 -5 0 -7
-4 -4 -10z"/>
<path d="M2174 495 c-3 -8 -4 -20 -2 -27 3 -7 7 -1 10 15 6 29 1 36 -8 12z"/>
<path d="M1326 298 c3 -5 10 -6 15 -3 13 9 11 12 -6 12 -8 0 -12 -4 -9 -9z"/>
<path d="M1257 275 c-4 -8 -3 -16 1 -19 4 -3 9 4 9 15 2 23 -3 25 -10 4z"/>
<path d="M1995 280 c-3 -5 -2 -10 4 -10 5 0 13 5 16 10 3 6 2 10 -4 10 -5 0
-13 -4 -16 -10z"/>
<path d="M2055 271 c-3 -5 -2 -12 3 -15 5 -3 9 1 9 9 0 17 -3 19 -12 6z"/>
<path d="M1255 221 c-3 -5 -2 -12 3 -15 5 -3 9 1 9 9 0 17 -3 19 -12 6z"/>
</g>
</svg>
