<?xml version="1.0" encoding="utf-8"?>
<!-- Svg Vector Icons : http://www.onlinewebfonts.com/icon -->
<!DOCTYPE svg PUBLIC "-//W3C//DTD SVG 1.1//EN" "http://www.w3.org/Graphics/SVG/1.1/DTD/svg11.dtd">
<svg version="1.1" xmlns="http://www.w3.org/2000/svg" xmlns:xlink="http://www.w3.org/1999/xlink" x="0px" y="0px" viewBox="0 0 1000 1000" enable-background="new 0 0 1000 1000" xml:space="preserve">
<metadata> Svg Vector Icons : http://www.onlinewebfonts.com/icon </metadata>
<g><path d="M351.8,284.8c-3.9,0-7.9,0.2-11.7,0.5l-0.3,0c-74,3.2-101.3,38.2-106.1,45.3c0.1,26.1,0.7,269.9,0.4,334.2c18.5-14.5,46.6-26.5,103-27.5c0.8,0,1.7,0,2.5,0c30.1,0,63.9,9.8,100.3,29.2c15.1,8,27.4,16,35.4,21.6c0.2-137.9,0.1-333.9-1.1-351.6C469,328.6,417.5,284.8,351.8,284.8z"/><path d="M645.1,285.7c-74.2,0-117.5,40.8-125.6,51.7c-1.2,19.8-1.3,212.1-1.1,348.9c19.8-17.4,64.2-50.3,118-50.3c0.8,0,1.6,0,2.4,0c59.3,1.1,101.9,21,124,37.3c0.2-63.3,0.8-314.1,0.9-342.5c-8.2-8-46.6-42.2-109.8-44.9C651,285.8,648,285.7,645.1,285.7z"/><path d="M951.5,309.3c-24.7-58.3-60-110.8-105-155.8c-45-45-97.4-80.3-155.7-105C630.3,23,566.1,10,500,10c-66.2,0-130.3,13-190.7,38.5c-58.3,24.7-110.7,60-155.7,105c-45,45-80.3,97.4-105,155.8C23,369.7,10,433.9,10,500c0,66.2,13,130.3,38.5,190.7c24.7,58.4,60,110.8,105,155.8c45,45,97.4,80.3,155.7,105C369.7,977,433.8,990,500,990c66.1,0,130.3-13,190.7-38.5c58.3-24.7,110.8-60,155.7-105c45-45,80.3-97.4,105-155.8C977,630.3,990,566.2,990,500C990,433.9,977,369.7,951.5,309.3z M793.5,738.7c-0.4-0.3-41.8-27.9-76.7-41c-38.2-14.3-65.8-15.7-66-15.7l-0.2,0c0,0-2.2-0.2-6-0.2c-13.4,0-48.4,2-83.5,20.1c-26.3,13.1-59.8,48.6-60.1,49l-4,4.3l-4.6-3.6c-0.5-0.4-53.4-42.4-80.8-53.5c-26.2-10.6-70.3-16.3-74.7-16.8h-0.1c-4,0-39.9,0.3-62.9,9.6c-24.4,9.9-66.4,46.2-66.9,46.5l-10.5,9.1V311.2l1.5-1.8c1.2-1.4,29.2-33.7,60.5-47.8c31.1-14,78-16.5,79.9-16.6c0.1,0,4.4-0.3,11.4-0.3c17.3,0,50.2,1.7,75.6,13.2c28.6,12.9,59.6,35,70.5,43c9.1-7.4,33.2-25.7,63.8-40.1c30.6-14.4,60.9-16,72.5-16c3.1,0,5.1,0.1,5.8,0.1c0.2,0,0.5,0,0.9,0c9.2,0,56.6,0.9,91.8,17.7c30.6,13.1,60.1,36,67.6,42.1h4.1l0.8,440.6L793.5,738.7z"/></g>
</svg>